<svg xmlns="http://www.w3.org/2000/svg" width="800" height="500" viewBox="0 0 800 500">
  <defs>
    <style>
      .mono { font-family: 'JetBrains Mono', 'Fira Code', 'Consolas', monospace; }
      .title-bar { fill: #3c3f41; }
      .window-bg { fill: #2b2b2b; }
      .panel-bg { fill: #313335; }
      .text-normal { fill: #a9b7c6; font-size: 11px; }
      .text-keyword { fill: #cc7832; font-size: 11px; }
      .text-type { fill: #6897bb; font-size: 11px; }
      .text-number { fill: #6897bb; font-size: 11px; }
      .text-func { fill: #ffc66d; font-size: 11px; }
      .text-title { fill: #bbbbbb; font-size: 12px; }
      .text-menu { fill: #bbbbbb; font-size: 11px; }
      .line-num { fill: #606366; font-size: 11px; }
      .func-list-item { fill: #a9b7c6; font-size: 10px; }
      .func-list-selected { fill: #214283; }
      .separator { stroke: #555555; stroke-width: 1; }
      .btn-close { fill: #c75050; }
      .btn-min { fill: #d4a017; }
      .btn-max { fill: #4caf50; }
      .ctx-menu-bg { fill: #3c3f41; }
      .ctx-menu-item { fill: #bbbbbb; font-size: 11px; }
      .ctx-menu-highlight { fill: #4b6eaf; }
      .ctx-submenu-bg { fill: #3c3f41; }
      .ctx-d810g { fill: #ffc66d; font-size: 11px; font-weight: bold; }
      .selection-bg { fill: #214283; opacity: 0.4; }
    </style>
  </defs>

  <!-- Window background -->
  <rect width="800" height="500" rx="6" ry="6" class="window-bg"/>

  <!-- Title bar -->
  <rect width="800" height="30" rx="6" ry="6" class="title-bar"/>
  <rect x="0" y="20" width="800" height="10" class="title-bar"/>
  <circle cx="18" cy="15" r="6" class="btn-close"/>
  <circle cx="38" cy="15" r="6" class="btn-min"/>
  <circle cx="58" cy="15" r="6" class="btn-max"/>
  <text x="400" y="19" text-anchor="middle" class="mono text-title">CodeBrowser: test_target [x86_64/gcc]</text>

  <!-- Menu bar -->
  <rect x="0" y="30" width="800" height="22" fill="#3c3f41"/>
  <text x="12" y="45" class="mono text-menu">File</text>
  <text x="50" y="45" class="mono text-menu">Edit</text>
  <text x="90" y="45" class="mono text-menu">Analysis</text>
  <text x="155" y="45" class="mono text-menu">Navigation</text>
  <text x="235" y="45" class="mono text-menu">Search</text>
  <text x="290" y="45" class="mono text-menu">Window</text>
  <text x="355" y="45" class="mono text-menu">Help</text>
  <line x1="0" y1="52" x2="800" y2="52" class="separator"/>

  <!-- Toolbar -->
  <rect x="0" y="52" width="800" height="24" fill="#3c3f41"/>
  <rect x="8" y="56" width="16" height="16" rx="2" fill="#4b6eaf" opacity="0.6"/>
  <rect x="28" y="56" width="16" height="16" rx="2" fill="#4b6eaf" opacity="0.6"/>
  <rect x="48" y="56" width="16" height="16" rx="2" fill="#4b6eaf" opacity="0.6"/>
  <line x1="0" y1="76" x2="800" y2="76" class="separator"/>

  <!-- Left panel: Function List -->
  <rect x="0" y="76" width="170" height="424" class="panel-bg"/>
  <rect x="0" y="76" width="170" height="20" fill="#3c3f41"/>
  <text x="8" y="90" class="mono" style="fill:#bbbbbb; font-size:10px;">Symbol Tree</text>
  <line x1="170" y1="76" x2="170" y2="500" class="separator"/>

  <text x="10" y="112" class="mono func-list-item">Functions</text>
  <text x="22" y="126" class="mono func-list-item">main</text>
  <text x="22" y="140" class="mono func-list-item">init_config</text>
  <rect x="4" y="143" width="162" height="14" class="func-list-selected" rx="2"/>
  <text x="22" y="154" class="mono" style="fill:#ffffff; font-size:10px;">check_license</text>
  <text x="22" y="168" class="mono func-list-item">validate_key</text>
  <text x="22" y="182" class="mono func-list-item">decrypt_string</text>
  <text x="22" y="196" class="mono func-list-item">process_input</text>

  <!-- Center panel: Decompiler -->
  <rect x="170" y="76" width="630" height="20" fill="#3c3f41"/>
  <text x="178" y="90" class="mono" style="fill:#bbbbbb; font-size:10px;">Decompiler: check_license</text>

  <!-- Code area -->
  <rect x="170" y="96" width="630" height="404" class="window-bg"/>

  <!-- Selection highlight on function name -->
  <rect x="262" y="103" width="95" height="15" class="selection-bg"/>

  <!-- Code lines (abbreviated) -->
  <text x="180" y="114" class="mono line-num">1</text>
  <text x="205" y="114" class="mono text-keyword">int</text>
  <text x="228" y="114" class="mono text-func">check_license</text>
  <text x="318" y="114" class="mono text-normal">(</text>
  <text x="325" y="114" class="mono text-keyword">char</text>
  <text x="355" y="114" class="mono text-normal">*param_1) {</text>

  <text x="180" y="130" class="mono line-num">2</text>
  <text x="225" y="130" class="mono text-keyword">int</text>
  <text x="248" y="130" class="mono text-normal">local_10 =</text>
  <text x="325" y="130" class="mono text-number">0x2b8a7c3f</text>
  <text x="395" y="130" class="mono text-normal">;</text>

  <text x="180" y="146" class="mono line-num">3</text>
  <text x="225" y="146" class="mono text-keyword">int</text>
  <text x="248" y="146" class="mono text-normal">local_1c =</text>
  <text x="325" y="146" class="mono text-number">0</text>
  <text x="332" y="146" class="mono text-normal">;</text>

  <text x="180" y="162" class="mono line-num">4</text>
  <text x="225" y="162" class="mono text-keyword">int</text>
  <text x="248" y="162" class="mono text-normal">local_18 =</text>
  <text x="325" y="162" class="mono text-number">0</text>
  <text x="332" y="162" class="mono text-normal">;</text>

  <text x="180" y="178" class="mono line-num">5</text>

  <text x="180" y="194" class="mono line-num">6</text>
  <text x="225" y="194" class="mono text-keyword">while</text>
  <text x="258" y="194" class="mono text-normal">(</text>
  <text x="265" y="194" class="mono text-keyword">true</text>
  <text x="292" y="194" class="mono text-normal">) {</text>

  <text x="180" y="210" class="mono line-num">7</text>
  <text x="245" y="210" class="mono text-keyword">switch</text>
  <text x="285" y="210" class="mono text-normal">(local_10) {</text>

  <text x="180" y="226" class="mono line-num">8</text>
  <text x="265" y="226" class="mono text-keyword">case</text>
  <text x="298" y="226" class="mono text-number">0x2b8a7c3f</text>
  <text x="368" y="226" class="mono text-normal">:</text>

  <text x="180" y="242" class="mono line-num">9</text>
  <text x="285" y="242" class="mono text-keyword">if</text>
  <text x="302" y="242" class="mono text-normal">(*(param_1 + local_18) ==</text>
  <text x="510" y="242" class="mono text-number">0</text>
  <text x="517" y="242" class="mono text-normal">)</text>

  <text x="175" y="258" class="mono line-num">10</text>
  <text x="305" y="258" class="mono text-normal">local_10 =</text>
  <text x="382" y="258" class="mono text-number">0x7d3e9a15</text>
  <text x="452" y="258" class="mono text-normal">;</text>

  <text x="175" y="274" class="mono line-num">11</text>
  <text x="285" y="274" class="mono text-keyword">else</text>

  <text x="175" y="290" class="mono line-num">12</text>
  <text x="305" y="290" class="mono text-normal">local_10 =</text>
  <text x="382" y="290" class="mono text-number">0x4f1c82d6</text>
  <text x="452" y="290" class="mono text-normal">;</text>

  <text x="175" y="306" class="mono line-num">13</text>
  <text x="285" y="306" class="mono text-keyword">break</text>
  <text x="318" y="306" class="mono text-normal">;</text>

  <text x="175" y="322" class="mono line-num">14</text>
  <text x="265" y="322" class="mono text-keyword">case</text>
  <text x="298" y="322" class="mono text-number">0x4f1c82d6</text>
  <text x="368" y="322" class="mono text-normal">:</text>

  <text x="175" y="338" class="mono line-num">15</text>
  <text x="285" y="338" class="mono text-normal">local_1c = local_1c + *(param_1 + local_18);</text>

  <!-- Right-click context menu -->
  <g>
    <!-- Menu shadow -->
    <rect x="322" y="113" width="175" height="252" rx="3" fill="#000000" opacity="0.3"/>
    <!-- Menu background -->
    <rect x="320" y="111" width="175" height="252" rx="3" class="ctx-menu-bg" stroke="#555555" stroke-width="1"/>

    <text x="332" y="128" class="mono ctx-menu-item">Copy</text>
    <text x="332" y="146" class="mono ctx-menu-item">Paste</text>
    <line x1="328" y1="152" x2="488" y2="152" stroke="#555555" stroke-width="0.5"/>
    <text x="332" y="166" class="mono ctx-menu-item">Rename Variable</text>
    <text x="332" y="184" class="mono ctx-menu-item">Retype Variable</text>
    <text x="332" y="202" class="mono ctx-menu-item">Set Comment</text>
    <line x1="328" y1="208" x2="488" y2="208" stroke="#555555" stroke-width="0.5"/>
    <text x="332" y="222" class="mono ctx-menu-item">References</text>
    <text x="480" y="222" class="mono ctx-menu-item" style="font-size:9px;">&gt;</text>
    <text x="332" y="240" class="mono ctx-menu-item">Patch</text>
    <text x="480" y="240" class="mono ctx-menu-item" style="font-size:9px;">&gt;</text>
    <line x1="328" y1="246" x2="488" y2="246" stroke="#555555" stroke-width="0.5"/>

    <!-- D810G menu item (highlighted) -->
    <rect x="322" y="249" width="171" height="20" class="ctx-menu-highlight" rx="0"/>
    <text x="332" y="263" class="mono ctx-d810g">D810G</text>
    <text x="480" y="263" class="mono" style="fill:#ffffff; font-size:9px;">&gt;</text>

    <line x1="328" y1="272" x2="488" y2="272" stroke="#555555" stroke-width="0.5"/>
    <text x="332" y="286" class="mono ctx-menu-item">Graph Function</text>
    <text x="332" y="304" class="mono ctx-menu-item">Export to C</text>
    <line x1="328" y1="310" x2="488" y2="310" stroke="#555555" stroke-width="0.5"/>
    <text x="332" y="324" class="mono ctx-menu-item">Properties</text>
    <text x="332" y="342" class="mono ctx-menu-item">Function Tags</text>
    <text x="332" y="356" class="mono ctx-menu-item">Create Structure</text>
  </g>

  <!-- D810G submenu -->
  <g>
    <!-- Submenu shadow -->
    <rect x="499" y="242" width="200" height="70" rx="3" fill="#000000" opacity="0.3"/>
    <!-- Submenu background -->
    <rect x="497" y="240" width="200" height="70" rx="3" class="ctx-submenu-bg" stroke="#555555" stroke-width="1"/>

    <!-- Submenu items -->
    <rect x="499" y="243" width="196" height="20" class="ctx-menu-highlight" rx="0"/>
    <text x="510" y="258" class="mono" style="fill:#ffffff; font-size:11px;">Deobfuscate Function</text>
    <text x="510" y="278" class="mono ctx-menu-item">Deobfuscate Selection</text>
    <line x1="505" y1="284" x2="690" y2="284" stroke="#555555" stroke-width="0.5"/>
    <text x="510" y="298" class="mono ctx-menu-item" style="fill:#808080;">Configure D810G...</text>
  </g>

  <!-- Status bar -->
  <rect x="0" y="486" width="800" height="14" rx="0" fill="#3c3f41"/>
  <text x="8" y="496" class="mono" style="fill:#808080; font-size:9px;">check_license @ 00401000 | x86_64 | 847 bytes | 23 basic blocks</text>

  <!-- Window border -->
  <rect width="800" height="500" rx="6" ry="6" fill="none" stroke="#555555" stroke-width="1"/>
</svg>