<svg xmlns="http://www.w3.org/2000/svg" xmlns:xlink="http://www.w3.org/1999/xlink" width="960" height="601.04"><rect width="960" height="601.04" rx="5" ry="5" class="a"/><svg y="0%" x="0%"><circle cx="20" cy="20" r="6" fill="#ff5f58"/><circle cx="40" cy="20" r="6" fill="#ffbd2e"/><circle cx="60" cy="20" r="6" fill="#18c132"/></svg><svg height="521.04" viewBox="0 0 90 52.104" width="900" x="25" xmlns="http://www.w3.org/2000/svg" xmlns:xlink="http://www.w3.org/1999/xlink" y="60"><style>@keyframes h{0%{transform:translateX(0)}2%{transform:translateX(-90px)}16.6%{transform:translateX(-180px)}31.7%{transform:translateX(-270px)}14.7%{transform:translateX(-360px)}31.9%{transform:translateX(-450px)}35.6%{transform:translateX(-540px)}32.8%{transform:translateX(-630px)}14.1%{transform:translateX(-720px)}}.a{fill:#282d35}.f{fill:#b9c0cb;white-space:pre}</style><g font-family="Monaco,Consolas,Menlo,'Bitstream Vera Sans Mono','Powerline Symbols',monospace" font-size="1.67"><defs><symbol id="1"><text x="2.004" y="1.67" class="f">D810G</text><text x="8.016" y="1.67" class="f">—</text><text x="10.02" y="1.67" class="f">Opaque</text><text x="17.034" y="1.67" class="f">Predicate</text><text x="27.054" y="1.67" class="f">Detection</text></symbol><symbol id="2"><text x="2.004" y="1.67" class="f">====================================</text></symbol><symbol id="3"><text y="1.67" class="f">$</text><text x="2.004" y="1.67" class="f">d810g</text><text x="8.016" y="1.67" class="f">cli</text><text x="12.024" y="1.67" class="f">opaque</text><text x="19.038" y="1.67" class="f">&quot;x</text><text x="22.044" y="1.67" class="f">==</text><text x="25.05" y="1.67" class="f">x&quot;</text></symbol><symbol id="4"><text x="2.004" y="1.67" class="f">x</text><text x="4.008" y="1.67" class="f">==</text><text x="7.014" y="1.67" class="f">x</text></symbol><symbol id="5"><text x="2.004" y="1.67" class="f">-&gt;</text><text x="5.01" y="1.67" class="f">ALWAYS</text><text x="12.024" y="1.67" class="f">TRUE</text><text x="18.036" y="1.67" class="f">--</text><text x="21.042" y="1.67" class="f">opaque,</text><text x="29.058" y="1.67" class="f">can</text><text x="33.066" y="1.67" class="f">be</text><text x="36.072" y="1.67" class="f">eliminated</text></symbol><symbol id="6"><text y="1.67" class="f">$</text><text x="2.004" y="1.67" class="f">d810g</text><text x="8.016" y="1.67" class="f">cli</text><text x="12.024" y="1.67" class="f">opaque</text><text x="19.038" y="1.67" class="f">&quot;(x</text><text x="23.046" y="1.67" class="f">&amp;</text><text x="25.05" y="1.67" class="f">1)</text><text x="28.056" y="1.67" class="f">==</text><text x="31.062" y="1.67" class="f">2&quot;</text></symbol><symbol id="7"><text x="2.004" y="1.67" class="f">(x</text><text x="5.01" y="1.67" class="f">&amp;</text><text x="7.014" y="1.67" class="f">1)</text><text x="10.02" y="1.67" class="f">==</text><text x="13.026" y="1.67" class="f">2</text></symbol><symbol id="8"><text x="2.004" y="1.67" class="f">-&gt;</text><text x="5.01" y="1.67" class="f">ALWAYS</text><text x="12.024" y="1.67" class="f">FALSE</text><text x="18.036" y="1.67" class="f">--</text><text x="21.042" y="1.67" class="f">opaque,</text><text x="29.058" y="1.67" class="f">can</text><text x="33.066" y="1.67" class="f">be</text><text x="36.072" y="1.67" class="f">eliminated</text></symbol><symbol id="9"><text y="1.67" class="f">$</text><text x="2.004" y="1.67" class="f">d810g</text><text x="8.016" y="1.67" class="f">cli</text><text x="12.024" y="1.67" class="f">opaque</text><text x="19.038" y="1.67" class="f">&quot;x</text><text x="22.044" y="1.67" class="f">&gt;</text><text x="24.048" y="1.67" class="f">5&quot;</text></symbol><symbol id="10"><text x="2.004" y="1.67" class="f">x</text><text x="4.008" y="1.67" class="f">&gt;</text><text x="6.012" y="1.67" class="f">5</text></symbol><symbol id="11"><text x="2.004" y="1.67" class="f">-&gt;</text><text x="5.01" y="1.67" class="f">DYNAMIC</text><text x="18.036" y="1.67" class="f">--</text><text x="21.042" y="1.67" class="f">real</text><text x="26.052" y="1.67" class="f">condition,</text><text x="37.074" y="1.67" class="f">keep</text><text x="42.084" y="1.67" class="f">as-is</text></symbol><symbol id="12"><text y="1.67" class="f">$</text><text x="2.004" y="1.67" class="f">d810g</text><text x="8.016" y="1.67" class="f">cli</text><text x="12.024" y="1.67" class="f">opaque</text><text x="19.038" y="1.67" class="f">&quot;(x</text><text x="23.046" y="1.67" class="f">*</text><text x="25.05" y="1.67" class="f">(x</text><text x="28.056" y="1.67" class="f">+</text><text x="30.06" y="1.67" class="f">1))</text><text x="34.068" y="1.67" class="f">%%</text><text x="37.074" y="1.67" class="f">2</text><text x="39.078" y="1.67" class="f">==</text><text x="42.084" y="1.67" class="f">0&quot;</text></symbol><symbol id="a"><path fill="transparent" d="M0 0h90v24H0z"/></symbol></defs><path class="a" d="M0 0h90v52.104H0z"/><g style="animation-duration:1.027s;animation-iteration-count:infinite;animation-name:h;animation-timing-function:steps(1,end)"><svg width="810"><svg><use xlink:href="#a"/></svg><svg x="90"><use xlink:href="#a"/><use xlink:href="#1" y="2.171"/><use xlink:href="#2" y="4.342"/><use xlink:href="#3" y="8.684"/></svg><svg x="180"><use xlink:href="#a"/><use xlink:href="#1" y="2.171"/><use xlink:href="#2" y="4.342"/><use xlink:href="#3" y="8.684"/><use xlink:href="#4" y="10.855"/><use xlink:href="#5" y="13.026"/></svg><svg x="270"><use xlink:href="#a"/><use xlink:href="#1" y="2.171"/><use xlink:href="#2" y="4.342"/><use xlink:href="#3" y="8.684"/><use xlink:href="#4" y="10.855"/><use xlink:href="#5" y="13.026"/><use xlink:href="#6" y="17.368"/></svg><svg x="360"><use xlink:href="#a"/><use xlink:href="#1" y="2.171"/><use xlink:href="#2" y="4.342"/><use xlink:href="#3" y="8.684"/><use xlink:href="#4" y="10.855"/><use xlink:href="#5" y="13.026"/><use xlink:href="#6" y="17.368"/><use xlink:href="#7" y="19.539"/><use xlink:href="#8" y="21.71"/></svg><svg x="450"><use xlink:href="#a"/><use xlink:href="#1" y="2.171"/><use xlink:href="#2" y="4.342"/><use xlink:href="#3" y="8.684"/><use xlink:href="#4" y="10.855"/><use xlink:href="#5" y="13.026"/><use xlink:href="#6" y="17.368"/><use xlink:href="#7" y="19.539"/><use xlink:href="#8" y="21.71"/><use xlink:href="#9" y="26.052"/></svg><svg x="540"><use xlink:href="#a"/><use xlink:href="#1" y="2.171"/><use xlink:href="#2" y="4.342"/><use xlink:href="#3" y="8.684"/><use xlink:href="#4" y="10.855"/><use xlink:href="#5" y="13.026"/><use xlink:href="#6" y="17.368"/><use xlink:href="#7" y="19.539"/><use xlink:href="#8" y="21.71"/><use xlink:href="#9" y="26.052"/><use xlink:href="#10" y="28.223"/><use xlink:href="#11" y="30.394"/></svg><svg x="630"><use xlink:href="#a"/><use xlink:href="#1" y="2.171"/><use xlink:href="#2" y="4.342"/><use xlink:href="#3" y="8.684"/><use xlink:href="#4" y="10.855"/><use xlink:href="#5" y="13.026"/><use xlink:href="#6" y="17.368"/><use xlink:href="#7" y="19.539"/><use xlink:href="#8" y="21.71"/><use xlink:href="#9" y="26.052"/><use xlink:href="#10" y="28.223"/><use xlink:href="#11" y="30.394"/><use xlink:href="#12" y="34.736"/></svg><svg x="720"><use xlink:href="#a"/><use xlink:href="#1" y="2.171"/><use xlink:href="#2" y="4.342"/><use xlink:href="#3" y="8.684"/><use xlink:href="#4" y="10.855"/><use xlink:href="#5" y="13.026"/><use xlink:href="#6" y="17.368"/><use xlink:href="#7" y="19.539"/><use xlink:href="#8" y="21.71"/><use xlink:href="#9" y="26.052"/><use xlink:href="#10" y="28.223"/><use xlink:href="#11" y="30.394"/><use xlink:href="#12" y="34.736"/><text x="2.004" y="38.577" class="f">(x</text><text x="5.01" y="38.577" class="f">*</text><text x="7.014" y="38.577" class="f">(x</text><text x="10.02" y="38.577" class="f">+</text><text x="12.024" y="38.577" class="f">1))</text><text x="16.032" y="38.577" class="f">%%</text><text x="19.038" y="38.577" class="f">2</text><text x="21.042" y="38.577" class="f">==</text><text x="24.048" y="38.577" class="f">0</text><use xlink:href="#11" y="39.078"/></svg></svg></g></g></svg></svg>